<?xml version="1.0" standalone="no"?>
<!DOCTYPE svg PUBLIC "-//W3C//DTD SVG 20010904//EN"
 "http://www.w3.org/TR/2001/REC-SVG-20010904/DTD/svg10.dtd">
<svg version="1.0" xmlns="http://www.w3.org/2000/svg"
 width="1216.000000pt" height="1216.000000pt" viewBox="0 0 1216.000000 1216.000000"
 preserveAspectRatio="xMidYMid meet">
<metadata>
Created by potrace 1.14, written by Peter Selinger 2001-2017
</metadata>
<g transform="translate(0.000000,1216.000000) scale(0.100000,-0.100000)"
fill="#000000" stroke="none">
<path d="M5799 9756 c-2 -2 -40 -7 -84 -10 -75 -6 -101 -8 -192 -21 -21 -3
-56 -8 -78 -11 -22 -2 -46 -7 -54 -10 -8 -2 -30 -7 -50 -10 -20 -3 -81 -17
-136 -30 -55 -14 -111 -27 -125 -30 -51 -10 -279 -87 -399 -135 -143 -57 -347
-154 -356 -169 -3 -5 -15 -10 -26 -10 -10 0 -19 -3 -19 -8 0 -4 -12 -13 -27
-19 -68 -31 -386 -242 -440 -293 -12 -11 -26 -20 -32 -20 -5 0 -11 -4 -13 -8
-1 -5 -34 -35 -73 -67 -149 -125 -278 -254 -420 -420 -33 -38 -63 -71 -67 -73
-5 -2 -8 -8 -8 -13 0 -5 -8 -17 -17 -27 -28 -30 -51 -59 -62 -80 -6 -11 -17
-26 -23 -34 -19 -20 -90 -124 -138 -203 -23 -38 -48 -73 -54 -77 -6 -4 -7 -8
-2 -8 5 0 4 -6 -1 -12 -6 -7 -25 -40 -43 -73 -18 -33 -43 -78 -55 -100 -27
-51 -111 -231 -142 -310 -51 -125 -142 -403 -157 -480 -2 -11 -9 -40 -15 -65
-7 -25 -14 -56 -16 -70 -3 -14 -10 -45 -15 -70 -16 -76 -22 -109 -34 -210 -2
-14 -6 -47 -10 -75 -8 -61 -16 -158 -20 -243 -2 -35 -7 -67 -12 -72 -5 -4 -54
-27 -109 -50 -55 -24 -116 -50 -135 -58 -19 -9 -37 -16 -40 -17 -6 -2 -109
-50 -215 -99 -124 -59 -450 -220 -455 -226 -3 -3 -32 -18 -65 -34 -33 -16 -93
-49 -133 -73 -41 -24 -75 -43 -77 -43 -17 0 -379 -233 -495 -319 -118 -88
-273 -230 -347 -318 -41 -49 -50 -60 -84 -113 -160 -243 -186 -507 -73 -737
64 -129 196 -249 344 -312 90 -38 124 -51 140 -51 3 0 28 -6 55 -14 28 -8 57
-14 65 -14 8 0 26 -3 40 -6 115 -26 483 -37 720 -22 189 13 302 22 380 31 19
3 56 7 83 10 92 10 132 15 154 19 12 3 48 7 80 11 58 6 72 8 148 20 22 3 55 8
72 11 128 18 167 24 193 29 14 3 43 8 65 10 22 3 47 7 55 10 8 2 34 7 56 10
23 3 77 12 120 20 44 8 97 18 119 21 21 3 42 7 45 9 4 2 17 -10 30 -28 13 -18
27 -36 32 -42 84 -113 225 -270 352 -394 112 -109 102 -100 181 -166 33 -28
62 -53 65 -56 16 -17 181 -139 189 -139 5 0 11 -4 13 -8 4 -11 155 -112 167
-112 5 0 11 -3 13 -8 4 -10 120 -78 147 -87 12 -3 21 -11 21 -16 0 -5 9 -9 19
-9 11 0 21 -3 23 -8 8 -19 314 -156 473 -212 81 -29 268 -87 305 -95 8 -1 33
-8 55 -13 34 -9 77 -18 219 -47 19 -4 94 -15 136 -20 14 -2 43 -6 65 -9 116
-16 191 -20 410 -20 214 -1 371 7 430 20 11 2 43 6 70 9 28 2 61 7 75 10 14 3
39 7 55 10 26 3 84 15 151 29 12 2 38 9 58 14 20 6 36 8 36 5 0 -3 7 0 15 7 8
7 15 10 15 7 0 -4 18 0 40 8 22 8 41 14 43 14 1 -1 22 5 47 12 25 7 47 13 50
14 13 3 117 37 135 45 11 4 58 23 105 40 105 40 296 128 332 152 14 10 33 18
42 18 9 0 16 4 16 8 0 4 12 13 28 19 31 13 105 55 112 64 3 3 16 12 30 19 92
48 373 252 485 351 113 100 405 400 405 416 0 3 6 11 13 17 8 6 45 52 83 101
38 50 71 92 74 95 3 3 11 17 19 32 8 16 18 28 23 28 4 0 8 7 8 15 0 8 5 15 10
15 6 0 10 4 10 10 0 5 25 46 55 92 30 45 55 88 55 94 0 7 4 14 9 16 13 5 218
412 226 448 0 3 15 41 32 85 64 164 141 422 168 565 3 14 7 36 10 50 3 14 8
41 11 60 4 19 8 44 11 55 2 11 6 38 9 60 2 22 7 58 10 80 7 58 13 120 19 203
4 65 19 104 40 102 6 0 29 9 165 69 132 59 197 89 252 117 27 13 49 24 50 23
16 -5 763 370 921 463 26 15 50 28 52 28 9 0 262 154 360 219 334 220 530 420
607 619 36 90 40 113 43 226 6 204 -99 398 -281 521 -27 18 -68 42 -90 52 -21
10 -41 20 -44 23 -6 6 -96 39 -120 45 -8 2 -53 12 -100 23 -47 11 -114 23
-150 27 -36 4 -78 9 -95 11 -23 3 -246 14 -310 15 -31 1 -330 -11 -385 -15
-36 -3 -101 -8 -145 -11 -44 -3 -96 -8 -115 -10 -19 -3 -60 -7 -90 -10 -65 -6
-145 -15 -180 -20 -32 -5 -127 -17 -160 -20 -14 -2 -25 -4 -25 -5 0 0 -16 -3
-35 -4 -19 -2 -55 -7 -80 -10 -94 -15 -106 -16 -130 -21 -14 -2 -43 -7 -65
-10 -23 -3 -50 -7 -61 -9 -12 -2 -45 -7 -75 -11 -30 -4 -57 -9 -60 -10 -3 -2
-28 -7 -55 -11 -27 -3 -52 -8 -55 -10 -4 -2 -25 -6 -48 -9 -23 -3 -67 -11
-100 -19 -32 -7 -63 -11 -68 -7 -5 3 -36 43 -68 89 -32 45 -62 82 -66 82 -4 0
-10 8 -13 18 -4 9 -19 31 -34 48 -15 17 -47 56 -72 85 -51 62 -343 353 -386
386 -16 12 -40 31 -54 43 -14 12 -34 29 -45 39 -11 9 -47 37 -80 61 -33 25
-62 47 -65 50 -7 8 -179 121 -205 135 -23 13 -92 54 -120 73 -11 6 -27 15 -35
19 -8 4 -37 19 -63 35 -26 15 -54 28 -62 28 -8 0 -15 5 -15 10 0 6 -4 10 -9
10 -5 0 -48 18 -96 40 -47 23 -110 50 -138 61 -29 11 -61 24 -72 29 -68 30
-347 118 -430 135 -40 8 -60 13 -60 15 0 1 -9 3 -20 5 -11 2 -54 10 -95 18
-104 21 -160 30 -265 43 -27 3 -68 8 -90 10 -49 6 -541 15 -546 10z m471 -821
c30 -4 69 -8 85 -10 61 -5 153 -21 245 -41 14 -3 36 -7 48 -10 68 -14 233 -62
254 -74 10 -6 24 -10 31 -10 20 0 198 -75 321 -135 212 -103 413 -236 591
-389 82 -71 255 -244 305 -305 19 -24 40 -48 45 -55 25 -26 135 -177 180 -245
41 -62 175 -297 175 -307 0 -1 14 -33 31 -71 17 -37 37 -83 46 -101 15 -35 93
-256 98 -282 9 -41 18 -76 24 -85 6 -10 8 -20 15 -65 2 -14 6 -32 9 -40 6 -15
14 -56 23 -121 5 -41 19 -33 -181 -114 -77 -32 -151 -62 -165 -68 -14 -6 -27
-11 -30 -12 -9 -2 -224 -86 -245 -95 -43 -20 -413 -159 -438 -165 -15 -4 -30
-11 -33 -16 -3 -5 -12 -9 -21 -9 -8 0 -29 -6 -46 -14 -54 -24 -132 -51 -139
-48 -5 1 -8 -2 -8 -6 0 -5 -6 -9 -12 -9 -7 -1 -58 -17 -113 -38 -55 -20 -109
-39 -120 -42 -11 -3 -24 -9 -30 -13 -5 -4 -37 -15 -70 -25 -33 -10 -66 -22
-72 -28 -7 -5 -13 -7 -13 -5 0 3 -30 -6 -67 -19 -38 -13 -72 -26 -78 -27 -5
-2 -17 -6 -25 -9 -19 -7 -262 -88 -275 -91 -5 -2 -17 -6 -25 -9 -40 -16 -366
-117 -390 -122 -3 0 -36 -10 -75 -22 -85 -27 -238 -72 -262 -78 -10 -3 -49
-14 -88 -25 -38 -12 -80 -23 -92 -26 -12 -2 -34 -9 -48 -14 -14 -5 -25 -7 -25
-4 0 3 -6 2 -12 -3 -7 -4 -15 -8 -18 -9 -3 0 -25 -6 -50 -13 -180 -49 -342
-93 -361 -96 -12 -3 -36 -9 -53 -14 -17 -6 -42 -13 -56 -15 -14 -3 -79 -19
-145 -37 -66 -17 -127 -32 -135 -34 -8 -2 -44 -11 -80 -20 -72 -18 -76 -19
-140 -35 -25 -6 -54 -13 -65 -15 -11 -2 -58 -13 -105 -25 -69 -17 -441 -103
-500 -115 -8 -2 -67 -15 -130 -29 -120 -27 -155 -34 -205 -42 -16 -3 -46 -9
-65 -15 -19 -5 -38 -9 -42 -9 -7 0 -39 66 -36 73 1 1 -5 13 -13 27 -8 14 -14
30 -15 35 0 6 -5 19 -9 30 -21 52 -43 111 -44 120 -1 6 -9 35 -18 65 -9 30
-18 60 -19 65 -2 6 -6 21 -9 35 -17 64 -32 135 -38 175 -3 17 -7 37 -10 45 -3
8 -8 40 -12 70 -3 30 -8 69 -10 85 -3 17 -7 51 -9 76 -1 25 -5 50 -7 55 -7 13
-3 386 5 466 10 105 20 175 42 293 15 80 69 297 81 325 3 8 7 17 8 20 4 18 28
88 35 105 4 11 16 40 25 65 97 259 283 573 478 805 53 63 256 268 317 320 130
111 345 262 455 320 28 14 65 35 83 45 17 11 32 16 32 12 0 -4 4 -2 8 3 4 6
41 25 82 44 41 18 84 37 95 42 70 31 242 90 260 89 3 0 18 6 34 14 16 9 31 13
34 10 3 -3 14 -1 25 5 10 6 34 13 53 16 19 3 48 10 64 14 17 5 59 14 95 20 36
6 79 13 95 16 17 4 46 8 65 9 19 2 69 7 110 11 41 4 76 8 77 9 5 5 363 -3 413
-9z m4450 -1471 c0 -13 -634 -344 -659 -344 -6 0 -11 -4 -11 -10 0 -5 -9 -10
-20 -10 -11 0 -20 -4 -20 -10 0 -5 -5 -10 -11 -10 -5 0 -47 -17 -92 -39 -45
-21 -109 -51 -142 -67 -33 -16 -62 -29 -65 -29 -3 -1 -32 -14 -65 -29 -79 -36
-77 -36 -86 4 -5 19 -11 46 -15 60 -3 14 -6 33 -7 43 -1 9 -4 17 -7 17 -4 0
-7 6 -7 13 0 6 -10 46 -23 87 -12 41 -22 76 -21 78 1 1 -6 18 -14 38 -8 20
-15 40 -15 44 0 7 41 19 85 25 61 9 177 26 197 31 13 2 41 6 63 9 22 3 51 7
65 10 31 6 82 13 145 20 28 3 57 7 65 10 8 2 47 6 85 9 39 3 81 8 95 10 22 4
85 10 215 22 22 2 80 6 130 9 49 4 91 7 92 9 3 2 43 2 43 0z m-1960 -2069
c-17 -66 -32 -127 -34 -135 -7 -26 -57 -174 -66 -195 -5 -11 -25 -60 -45 -110
-60 -148 -176 -364 -264 -490 -19 -27 -44 -64 -55 -80 -12 -17 -27 -37 -33
-45 -7 -8 -46 -56 -86 -105 -124 -152 -312 -334 -462 -447 -71 -53 -214 -151
-235 -161 -8 -4 -37 -21 -65 -37 -56 -34 -293 -151 -309 -154 -6 -1 -16 -4
-21 -8 -13 -8 -144 -58 -165 -63 -8 -2 -35 -11 -60 -20 -40 -14 -214 -61 -265
-71 -11 -2 -31 -6 -45 -9 -145 -31 -331 -48 -525 -48 -128 -1 -283 7 -345 17
-14 2 -45 7 -70 11 -47 7 -72 11 -130 22 -19 3 -43 6 -52 7 -10 0 -18 5 -18
10 0 5 -2 7 -6 4 -5 -5 -40 3 -196 47 -56 15 -209 71 -272 99 -110 49 -142 63
-146 62 -3 -1 -20 9 -37 22 -18 13 -33 20 -33 15 0 -4 -4 -3 -8 2 -4 6 -33 24
-64 40 -32 17 -58 33 -58 38 0 4 -5 7 -12 7 -39 0 -352 236 -497 376 l-85 82
59 13 c33 7 65 14 71 15 7 1 45 10 85 19 41 9 81 18 89 20 8 2 57 13 108 25
51 12 99 23 105 24 7 2 23 6 37 9 53 13 162 39 178 42 9 2 17 4 17 5 0 1 7 3
15 5 8 2 26 6 40 9 65 14 247 58 260 63 8 3 22 7 30 8 8 2 24 6 35 9 23 6 102
26 125 31 16 3 167 44 350 94 63 18 124 34 135 36 36 7 163 42 172 48 5 3 20
8 34 11 24 4 85 21 189 51 30 9 62 18 70 20 8 2 36 10 63 18 26 8 47 12 47 9
0 -4 4 -2 8 3 6 9 60 27 121 41 13 3 32 9 43 15 10 5 18 7 18 4 0 -3 8 -1 18
4 11 6 30 12 43 15 13 3 44 13 69 22 25 9 52 17 60 19 8 2 80 25 160 51 80 26
150 49 155 50 16 4 366 124 420 144 28 10 140 51 250 90 110 40 214 77 230 84
17 7 77 30 135 51 58 20 120 44 139 52 18 8 39 16 45 18 6 1 20 6 31 10 11 5
43 17 70 28 28 10 59 23 70 27 11 4 23 8 27 9 5 1 33 12 63 26 30 13 55 21 55
18 0 -3 6 -1 13 4 6 6 57 27 112 48 55 21 105 42 110 47 20 18 15 -28 -15
-147z m-6261 -198 c5 -13 12 -37 14 -53 3 -16 11 -45 17 -64 6 -19 13 -44 15
-54 5 -21 33 -111 42 -136 3 -8 7 -19 9 -25 1 -5 9 -30 18 -54 9 -25 13 -48 9
-52 -5 -4 -28 -9 -53 -13 -25 -3 -58 -8 -75 -11 -53 -10 -139 -24 -185 -29
-25 -4 -56 -8 -70 -10 -43 -8 -93 -15 -146 -21 -28 -3 -60 -7 -72 -10 -11 -2
-52 -7 -89 -11 -37 -4 -81 -8 -98 -10 -16 -2 -61 -6 -100 -9 -38 -4 -81 -8
-95 -11 -14 -2 -90 -6 -170 -10 -168 -6 -170 -16 25 100 72 43 137 82 145 87
8 5 35 19 60 32 25 12 47 25 50 28 3 3 32 19 65 35 33 16 62 31 65 34 9 9 285
144 300 146 8 2 16 8 18 13 2 6 10 11 17 11 7 0 37 12 67 27 29 15 55 28 58
28 8 2 104 45 120 55 23 14 30 12 39 -13z"/>
</g>
</svg>
